<?xml version="1.0" encoding="UTF-8" standalone="no"?>
<!-- Generator: Adobe Illustrator 16.0.0, SVG Export Plug-In . SVG Version: 6.00 Build 0)  -->

<svg
   xmlns:dc="http://purl.org/dc/elements/1.1/"
   xmlns:cc="http://creativecommons.org/ns#"
   xmlns:rdf="http://www.w3.org/1999/02/22-rdf-syntax-ns#"
   xmlns:svg="http://www.w3.org/2000/svg"
   xmlns="http://www.w3.org/2000/svg"
   xmlns:sodipodi="http://sodipodi.sourceforge.net/DTD/sodipodi-0.dtd"
   xmlns:inkscape="http://www.inkscape.org/namespaces/inkscape"
   version="1.1"
   id="Layer_1"
   x="0px"
   y="0px"
   width="841.89001"
   height="399.28003"
   viewBox="0 0 841.89 399.28"
   enable-background="new 0 0 841.89 595.28"
   xml:space="preserve"
   sodipodi:docname="logo_small.svg"
   inkscape:version="0.92.3 (2405546, 2018-03-11)"><metadata
   id="metadata51"><rdf:RDF><cc:Work
       rdf:about=""><dc:format>image/svg+xml</dc:format><dc:type
         rdf:resource="http://purl.org/dc/dcmitype/StillImage" /><dc:title></dc:title></cc:Work></rdf:RDF></metadata><defs
   id="defs49" /><sodipodi:namedview
   pagecolor="#ffffff"
   bordercolor="#666666"
   borderopacity="1"
   objecttolerance="10"
   gridtolerance="10"
   guidetolerance="10"
   inkscape:pageopacity="0"
   inkscape:pageshadow="2"
   inkscape:window-width="1366"
   inkscape:window-height="713"
   id="namedview47"
   showgrid="false"
   inkscape:zoom="0.39645207"
   inkscape:cx="420.94501"
   inkscape:cy="297.64001"
   inkscape:window-x="0"
   inkscape:window-y="27"
   inkscape:window-maximized="1"
   inkscape:current-layer="Layer_1" />
<g
   id="g44"
   transform="translate(7.567119,-125.37346)">
	<g
   id="g8">
		<g
   id="g6">
			<path
   d="m 141.554,339.336 c 0,19.671 -14.124,29.5 -42.391,29.5 -9.613,0 -18.536,-1.164 -26.783,-3.476 l 3.692,-16.817 c 8.148,2.824 15.843,4.219 23.09,4.219 8.039,0 13.818,-0.773 17.339,-2.332 3.521,-1.549 5.286,-4.178 5.286,-7.847 0,-3.825 -1.655,-7.042 -4.97,-9.659 -2.867,-2.322 -8.678,-5.332 -17.439,-9.045 -7.947,-3.422 -13.854,-7.155 -17.718,-11.17 -4.888,-5.082 -7.32,-11.349 -7.32,-18.786 0,-8.651 3.208,-15.425 9.611,-20.302 6.417,-4.876 15.631,-7.32 27.654,-7.32 9.862,0 18.129,0.832 24.823,2.497 l -2.798,16.742 c -6.781,-2.453 -14.122,-3.692 -22.025,-3.692 -11.861,0 -17.803,3.175 -17.803,9.501 0,3.37 1.378,6.129 4.154,8.237 2.41,1.811 7.664,4.352 15.759,7.611 8.603,3.463 15.039,7.297 19.312,11.463 5.685,5.59 8.527,12.479 8.527,20.676 z"
   id="path2"
   inkscape:connector-curvature="0"
   style="fill:#00263d" />
			<path
   d="m 249.22,315.196 c 0,15.437 -4.735,28.244 -14.186,38.397 -9.453,10.159 -21.143,15.242 -35.082,15.242 -13.274,0 -24.394,-4.662 -33.337,-13.994 -8.96,-9.321 -13.436,-21.187 -13.436,-35.564 0,-15.445 4.726,-28.25 14.188,-38.399 9.451,-10.173 21.141,-15.24 35.07,-15.24 13.285,0 24.394,4.646 33.349,13.946 8.958,9.3 13.434,21.187 13.434,35.612 z m -20.818,2.186 c 0,-10.507 -2.702,-19.032 -8.075,-25.58 -5.382,-6.529 -12.035,-9.806 -19.922,-9.806 -7.343,0 -13.576,3.297 -18.71,9.895 -5.135,6.589 -7.695,14.91 -7.695,24.963 0,10.451 2.711,18.977 8.114,25.544 5.402,6.558 12.023,9.838 19.874,9.838 7.341,0 13.584,-3.302 18.706,-9.923 5.134,-6.61 7.708,-14.919 7.708,-24.931 z"
   id="path4"
   inkscape:connector-curvature="0"
   style="fill:#00263d" />
		</g>
	</g>
	<g
   id="g26">
		<g
   id="g12">
			<path
   d="m 529.079,292.254 c 0,11.476 -4.348,20.045 -13.045,25.726 -8.72,5.695 -20.411,8.528 -35.093,8.528 -1.853,0 -3.466,-0.044 -4.824,-0.149 0,10.956 0.409,24.217 1.207,39.765 h -14.49 c 0.755,-14.284 1.144,-31.49 1.144,-51.598 0,-17.311 -0.389,-32.853 -1.144,-46.629 h 10.786 c 1.162,0 4.477,-0.089 9.927,-0.238 5.446,-0.151 10.097,-0.215 13.928,-0.215 9.644,0 17.332,2.195 23.059,6.589 5.706,4.404 8.545,10.485 8.545,18.221 z m -12.592,4.383 c 0,-12.919 -8.827,-19.387 -26.481,-19.387 -4.328,0 -9.17,0.375 -14.579,1.123 0.368,8.198 0.542,20.976 0.542,38.331 1.763,0.105 3.916,0.15 6.499,0.15 22.671,0 34.019,-6.74 34.019,-20.217 z"
   id="path10"
   inkscape:connector-curvature="0"
   style="fill:#00263d" />
		</g>
		<g
   id="g16">
			<path
   d="m 608.072,355.027 -0.452,11.097 h -59.359 c 0.583,-12.426 0.887,-29.636 0.887,-51.598 0,-18.923 -0.304,-34.469 -0.887,-46.629 h 14.019 c -0.604,10.148 -0.905,25.695 -0.905,46.629 0,17.19 -0.278,30.974 -0.839,41.328 15.113,0 30.934,-0.27 47.536,-0.827 z"
   id="path14"
   inkscape:connector-curvature="0"
   style="fill:#00263d" />
		</g>
		<g
   id="g20">
			<path
   d="m 704.116,366.124 h -15.912 c 0,-3.372 -3.164,-13.952 -9.516,-31.778 h -43.534 c -6.243,17.569 -9.341,28.15 -9.341,31.778 h -15.244 c 0,-1.866 6.479,-17.944 19.46,-48.237 12.985,-30.314 19.465,-46.977 19.465,-49.99 h 17.503 c 0,2.97 6.18,19.387 18.56,49.259 12.377,29.881 18.559,46.193 18.559,48.968 z m -28.893,-41.647 c -11.819,-29.52 -17.74,-45.215 -17.74,-47.085 h -0.819 c 0,1.571 -6.113,17.254 -18.321,47.085 z"
   id="path18"
   inkscape:connector-curvature="0"
   style="fill:#00263d" />
		</g>
		<g
   id="g24">
			<path
   d="m 784.613,267.897 c 0,1.859 -3.082,7.293 -9.282,16.294 -8.737,12.713 -14.444,21.367 -17.114,25.944 -6.2,10.517 -9.301,18.516 -9.301,24.006 0,10.357 0.366,21.023 1.079,31.983 h -14.494 c 0.649,-10.413 0.992,-21.132 0.992,-32.142 0,-6.041 -2.903,-14.406 -8.679,-25.128 -3.269,-5.972 -8.674,-14.641 -16.228,-25.953 -5.793,-8.742 -8.678,-13.756 -8.678,-15.004 h 15.454 c 0,1.301 4.354,9.312 13.027,24.026 8.678,14.714 13.004,24.426 13.004,29.151 h 0.777 c 0,-4.773 4.133,-14.332 12.4,-28.667 8.267,-14.33 12.4,-22.51 12.4,-24.511 h 14.643 z"
   id="path22"
   inkscape:connector-curvature="0"
   style="fill:#00263d" />
		</g>
	</g>
	<g
   id="g42">
		<g
   id="g32">
			<path
   d="m 262.947,250.38 14.133,23.715 c 0,0 0.798,-0.638 2.238,-1.681 1.442,-1.031 3.532,-2.497 6.093,-4.133 1.282,-0.837 2.67,-1.733 4.156,-2.611 1.504,-0.908 3.057,-1.877 4.728,-2.814 1.655,-0.926 3.347,-1.937 5.11,-2.885 1.744,-0.958 3.55,-1.907 5.34,-2.849 1.832,-0.928 3.628,-1.865 5.435,-2.734 1.799,-0.905 3.607,-1.705 5.332,-2.533 3.475,-1.612 6.767,-3.034 9.634,-4.177 2.854,-1.173 5.286,-2.053 7.007,-2.647 1.722,-0.581 2.732,-0.88 2.732,-0.88 0,0 -0.805,0.631 -2.236,1.676 -1.454,1.047 -3.532,2.51 -6.095,4.159 -2.561,1.655 -5.585,3.509 -8.889,5.416 -1.66,0.921 -3.34,1.948 -5.103,2.869 -1.756,0.969 -3.564,1.918 -5.364,2.855 -1.808,0.937 -3.614,1.863 -5.423,2.732 -1.788,0.905 -3.607,1.712 -5.34,2.528 -1.724,0.833 -3.434,1.564 -5.039,2.264 -1.603,0.722 -3.155,1.344 -4.583,1.927 -2.865,1.159 -5.297,2.035 -7.01,2.634 -1.712,0.597 -2.723,0.885 -2.723,0.885 l 28.568,47.99 -34.252,37.462 v 0 l -2.647,2.895 c -10.786,11.819 -9.152,29.45 3.658,39.4 12.81,9.942 31.941,8.447 42.739,-3.361 l 41.215,-45.093 5.61,-6.134 c 0,0 -1.056,-0.564 -2.867,-1.607 -0.912,-0.517 -1.998,-1.168 -3.173,-2.033 -1.198,-0.815 -2.551,-1.764 -3.886,-2.948 -0.668,-0.579 -1.422,-1.155 -2.11,-1.834 -0.677,-0.675 -1.378,-1.383 -2.11,-2.116 -1.355,-1.527 -2.798,-3.186 -3.982,-5.104 -1.216,-1.887 -2.302,-3.98 -3.091,-6.23 -0.375,-1.122 -0.677,-2.295 -0.924,-3.49 -0.151,-1.195 -0.398,-2.387 -0.366,-3.619 -0.096,-2.443 0.291,-4.877 0.979,-7.168 0.626,-2.311 1.765,-4.402 2.906,-6.342 1.143,-1.959 2.597,-3.616 3.985,-5.154 1.399,-1.507 2.862,-2.808 4.284,-3.928 2.821,-2.25 5.446,-3.745 7.321,-4.705 1.884,-0.947 3.036,-1.358 3.036,-1.358 l -40.909,-68.664 z"
   id="path28"
   inkscape:connector-curvature="0"
   style="fill:#f5bd47" />
			<path
   d="m 372.044,306.648 0.043,-0.021 -10.117,-17.012 c 0,0 -0.928,0.754 -2.455,2.092 -1.509,1.358 -3.617,3.317 -5.867,5.814 -1.131,1.248 -2.25,2.669 -3.37,4.166 -1.077,1.538 -2.131,3.187 -3.036,4.949 -0.892,1.754 -1.655,3.629 -2.131,5.59 -0.453,1.937 -0.772,3.939 -0.658,5.939 -0.042,1.011 0.165,2.012 0.261,3.002 0.203,0.98 0.397,1.969 0.676,2.938 0.636,1.918 1.335,3.825 2.325,5.567 0.926,1.765 2.026,3.413 3.089,4.961 1.152,1.497 2.208,2.96 3.352,4.236 1.052,1.298 2.128,2.426 3.086,3.454 0.937,1.031 1.774,1.912 2.508,2.623 1.422,1.431 2.22,2.307 2.22,2.307 l 7.362,-8.063 c 8.625,-9.432 9.313,-22.563 2.712,-32.542 z"
   id="path30"
   inkscape:connector-curvature="0"
   style="fill:#f5bd47" />
		</g>
		<path
   d="m 392.328,225.518 51.906,26.275 -10.27,17.231 c -1.788,-1.26 -3.616,-2.497 -5.428,-3.66 l -0.191,-0.117 c -1.226,-0.796 -2.606,-1.681 -4.067,-2.549 l -0.926,-0.574 c -1.249,-0.752 -2.522,-1.527 -3.877,-2.279 -0.581,-0.338 -1.162,-0.67 -1.742,-1.001 -1.1,-0.638 -2.24,-1.285 -3.402,-1.907 -1.509,-0.832 -3.059,-1.66 -4.565,-2.453 l -0.88,-0.464 -0.908,-0.464 c -1.506,-0.764 -3.057,-1.548 -4.542,-2.259 -1.182,-0.606 -2.366,-1.164 -3.53,-1.689 -0.626,-0.302 -1.249,-0.581 -1.893,-0.896 -3.384,-1.56 -6.76,-3.034 -9.776,-4.262 -1.916,-0.773 -3.877,-1.516 -5.866,-2.227 l 9.957,-16.705 m -1.335,-4.566 -13.813,23.198 c 0,0 1.013,0.299 2.725,0.88 1.722,0.595 4.156,1.484 7.019,2.647 2.862,1.143 6.159,2.565 9.623,4.177 1.721,0.828 3.532,1.627 5.34,2.533 1.786,0.869 3.596,1.806 5.425,2.734 1.788,0.942 3.594,1.891 5.34,2.849 1.765,0.949 3.466,1.959 5.121,2.885 1.66,0.938 3.21,1.907 4.714,2.814 1.509,0.878 2.888,1.774 4.156,2.611 2.563,1.628 4.65,3.103 6.095,4.133 1.44,1.042 2.236,1.681 2.236,1.681 l 14.146,-23.715 z"
   id="path34"
   inkscape:connector-curvature="0"
   style="fill:#00263d" />
		<g
   id="g40">
			<path
   d="m 378.204,249.228 c 1.829,1.294 3.617,2.51 5.402,3.649 2.67,1.742 5.805,3.648 9.087,5.535 0.599,0.343 1.203,0.69 1.806,1.033 1.079,0.626 2.197,1.269 3.338,1.863 1.527,0.848 3.1,1.681 4.627,2.497 l 0.818,0.421 0.882,0.443 c 1.509,0.773 3.059,1.568 4.568,2.3 1.182,0.59 2.366,1.143 3.507,1.671 0.649,0.299 1.271,0.579 1.875,0.869 1.399,0.679 2.755,1.269 4.069,1.832 l 1.075,0.484 c 1.657,0.734 3.271,1.386 4.673,1.959 1.938,0.786 3.852,1.527 5.875,2.25 l -26.394,44.277 -1.314,2.215 1.747,1.898 30.356,33.216 c -0.69,0.03 -1.381,0.099 -2.112,0.194 l -0.064,0.01 -0.087,0.011 -0.645,0.11 c -0.668,0.105 -1.335,0.217 -2.025,0.354 l -0.083,0.021 -0.087,0.031 -0.196,0.041 c -0.813,0.218 -1.763,0.453 -2.711,0.76 l -0.064,0.021 -0.064,0.021 c -0.258,0.105 -0.539,0.201 -0.841,0.311 -0.622,0.217 -1.335,0.465 -2.108,0.787 -0.923,0.43 -1.961,0.894 -2.949,1.422 l -0.066,0.029 -0.043,0.032 -1.056,0.606 -1.632,0.948 -0.11,0.062 -0.087,0.064 c -1.051,0.699 -1.916,1.289 -2.691,1.863 l -0.043,0.022 -0.041,0.03 c -0.818,0.628 -1.591,1.279 -2.346,1.906 l -0.258,0.217 -0.626,0.537 -0.151,0.126 -0.043,0.053 -0.064,0.048 -0.258,0.236 -0.279,0.27 -1.077,1.054 c -0.645,0.626 -1.486,1.483 -2.369,2.542 -0.151,0.189 -0.325,0.387 -0.494,0.581 -0.563,0.643 -1.144,1.301 -1.66,2.064 -1.335,1.742 -2.387,3.555 -3.443,5.393 l -0.041,0.11 -0.069,0.073 c -0.128,0.302 -0.279,0.569 -0.407,0.864 -0.302,0.569 -0.604,1.18 -0.905,1.817 l -0.023,0.084 -0.041,0.078 -0.97,2.517 -0.041,0.122 -0.046,0.084 -0.537,1.744 -0.217,0.7 -0.062,0.137 -0.025,0.142 -0.297,1.322 -0.217,0.989 -0.021,0.092 -0.023,0.073 c -0.148,0.816 -0.256,1.495 -0.343,2.101 l -33.05,-36.149 4.353,-4.763 7.362,-8.045 c 9.579,-10.466 11.925,-24.816 6.145,-37.418 l -0.032,-0.08 -0.032,-0.073 -1.23,-2.392 -0.032,-0.053 -0.019,-0.063 c -0.174,-0.29 -0.347,-0.578 -0.496,-0.832 l -0.571,-0.963 -10.107,-16.991 -2.995,-5.014 -3.42,-5.761 15.285,-25.641 m -1.025,-5.078 -18.299,30.72 4.479,7.535 v 0 l 2.979,5.004 10.121,16.989 0.56,0.961 c 0.151,0.256 0.302,0.514 0.453,0.772 l 1.226,2.392 c 5.103,11.158 3.123,24.162 -5.542,33.637 l -7.375,8.063 -5.597,6.136 -0.882,0.958 37.612,41.163 c 1.159,1.269 2.433,2.392 3.768,3.413 -0.023,-0.084 -0.279,-1.013 -0.389,-2.67 -0.046,-0.869 -0.087,-1.938 0,-3.166 0.041,-0.61 0.109,-1.258 0.151,-1.948 0.107,-0.663 0.215,-1.386 0.366,-2.128 0.169,-0.748 0.345,-1.521 0.517,-2.316 0.256,-0.784 0.494,-1.601 0.773,-2.444 0.324,-0.815 0.649,-1.659 0.969,-2.517 0.389,-0.853 0.841,-1.691 1.271,-2.565 0.969,-1.691 1.98,-3.434 3.251,-5.077 0.56,-0.854 1.313,-1.648 2.003,-2.47 0.688,-0.848 1.399,-1.57 2.13,-2.27 l 1.079,-1.063 0.279,-0.27 0.192,-0.184 0.151,-0.132 0.624,-0.526 c 0.798,-0.665 1.616,-1.364 2.453,-2.003 0.864,-0.609 1.724,-1.205 2.583,-1.785 0.928,-0.537 1.831,-1.052 2.714,-1.572 0.905,-0.477 1.832,-0.893 2.737,-1.304 0.9,-0.394 1.852,-0.688 2.752,-1.02 0.905,-0.279 1.811,-0.517 2.671,-0.731 0.882,-0.197 1.744,-0.322 2.563,-0.455 1.187,-0.146 2.305,-0.227 3.336,-0.227 0.409,0 0.818,0.023 1.207,0.032 1.335,0.068 2.496,0.247 3.425,0.452 0.946,0.186 1.632,0.453 2.107,0.606 0.476,0.169 0.711,0.3 0.711,0.3 l -2.649,-2.895 v 0 l -34.252,-37.462 28.568,-47.99 c 0,0 -1.011,-0.288 -2.712,-0.885 -1.721,-0.599 -4.156,-1.475 -7.019,-2.634 -1.422,-0.583 -2.972,-1.205 -4.586,-1.927 -1.614,-0.7 -3.315,-1.431 -5.037,-2.264 -1.721,-0.816 -3.553,-1.623 -5.34,-2.528 -1.809,-0.869 -3.614,-1.795 -5.425,-2.732 -1.808,-0.938 -3.594,-1.886 -5.361,-2.855 -1.763,-0.921 -3.445,-1.948 -5.103,-2.881 -3.304,-1.895 -6.328,-3.75 -8.879,-5.404 -2.563,-1.648 -4.639,-3.112 -6.084,-4.159 -1.442,-1.033 -2.236,-1.676 -2.236,-1.676 h -0.014 z"
   id="path36"
   inkscape:connector-curvature="0"
   style="fill:#00263d" />
			<path
   d="m 441.693,365.865 c 3.853,4.744 5.704,10.549 5.208,16.488 -0.578,6.536 -3.894,12.499 -9.385,16.754 -4.845,3.756 -11.001,5.829 -17.352,5.829 -5.599,0 -11.065,-1.589 -15.587,-4.518 0.041,-0.096 0.041,-0.174 0.064,-0.27 0.174,-0.658 0.43,-1.475 0.731,-2.4 l 0.087,-0.3 c 0.366,-1.086 0.841,-2.286 1.313,-3.425 0.54,-1.248 1.205,-2.595 1.852,-3.875 l 0.366,-0.649 0.754,-1.353 c 0.345,-0.506 0.645,-0.99 0.946,-1.484 0.13,-0.205 0.261,-0.432 0.389,-0.649 l 0.711,-0.979 0.796,-1.127 c 0.258,-0.338 0.514,-0.658 0.775,-0.994 0.322,-0.375 0.622,-0.748 0.946,-1.18 0.215,-0.307 0.494,-0.606 0.841,-0.97 0.279,-0.317 0.581,-0.626 0.883,-0.99 0.494,-0.596 1.161,-1.248 1.742,-1.813 l 0.023,-0.021 0.041,-0.032 1.057,-1.074 0.279,-0.247 0.023,-0.048 0.494,-0.437 c 0.389,-0.315 0.731,-0.627 1.097,-0.958 0.348,-0.312 0.672,-0.617 0.992,-0.876 0.645,-0.484 1.313,-1.02 2.175,-1.701 l 0.646,-0.452 1.44,-1.002 c 1.358,-0.825 2.801,-1.7 4.156,-2.343 1.376,-0.646 2.734,-1.185 4.026,-1.616 1.204,-0.353 2.476,-0.712 3.509,-0.896 0.97,-0.146 2.044,-0.309 2.886,-0.353 0.365,-0.029 0.732,-0.039 1.076,-0.039 m 0.28,-3.465 c -0.428,0 -0.949,0.011 -1.57,0.041 -0.905,0.043 -2.003,0.205 -3.229,0.406 -1.207,0.206 -2.565,0.574 -3.987,0.994 -1.44,0.469 -2.926,1.075 -4.453,1.777 -1.532,0.74 -3.036,1.632 -4.586,2.59 -0.755,0.521 -1.509,1.047 -2.282,1.584 -0.731,0.59 -1.463,1.187 -2.24,1.754 -0.731,0.602 -1.422,1.28 -2.154,1.906 l -0.56,0.476 -0.13,0.114 c 0.025,-0.021 0.025,-0.029 0.025,-0.029 0,0 -0.087,0.082 -0.087,0.094 l -0.279,0.283 -1.057,1.065 c -0.752,0.721 -1.465,1.422 -2.046,2.122 -0.581,0.711 -1.269,1.333 -1.829,2.105 -0.558,0.743 -1.184,1.444 -1.724,2.186 -0.535,0.755 -1.075,1.497 -1.591,2.208 -0.476,0.773 -0.905,1.521 -1.399,2.238 -0.412,0.748 -0.818,1.484 -1.249,2.186 -0.731,1.464 -1.399,2.865 -1.984,4.178 -0.535,1.346 -1.01,2.574 -1.397,3.685 -0.345,1.128 -0.67,2.108 -0.88,2.938 -0.197,0.815 -0.368,1.485 -0.455,1.934 -0.087,0.421 -0.13,0.647 -0.13,0.668 5.579,4.31 12.51,6.516 19.465,6.516 6.888,0 13.799,-2.153 19.483,-6.577 12.812,-9.95 14.444,-27.581 3.66,-39.4 0,-0.001 -0.473,-0.042 -1.335,-0.042 z"
   id="path38"
   inkscape:connector-curvature="0"
   style="fill:#00263d" />
		</g>
	</g>
</g>
</svg>