<?xml version="1.0" encoding="UTF-8" standalone="no"?>
<svg
   xmlns:dc="http://purl.org/dc/elements/1.1/"
   xmlns:cc="http://creativecommons.org/ns#"
   xmlns:rdf="http://www.w3.org/1999/02/22-rdf-syntax-ns#"
   xmlns:svg="http://www.w3.org/2000/svg"
   xmlns="http://www.w3.org/2000/svg"
   xmlns:sodipodi="http://sodipodi.sourceforge.net/DTD/sodipodi-0.dtd"
   xmlns:inkscape="http://www.inkscape.org/namespaces/inkscape"
   id="Layer_1"
   data-name="Layer 1"
   viewBox="0 0 1915 1000"
   version="1.1"
   sodipodi:docname="left.svg"
   width="1915"
   height="1000"
   inkscape:version="0.92.3 (2405546, 2018-03-11)">
  <metadata
     id="metadata19">
    <rdf:RDF>
      <cc:Work
         rdf:about="">
        <dc:format>image/svg+xml</dc:format>
        <dc:type
           rdf:resource="http://purl.org/dc/dcmitype/StillImage" />
        <dc:title>Artboard 1 copy 3</dc:title>
      </cc:Work>
    </rdf:RDF>
  </metadata>
  <sodipodi:namedview
     pagecolor="#ffffff"
     bordercolor="#666666"
     borderopacity="1"
     objecttolerance="10"
     gridtolerance="10"
     guidetolerance="10"
     inkscape:pageopacity="0"
     inkscape:pageshadow="2"
     inkscape:window-width="1366"
     inkscape:window-height="741"
     id="namedview17"
     showgrid="false"
     inkscape:zoom="0.0890625"
     inkscape:cx="1920"
     inkscape:cy="1080"
     inkscape:window-x="0"
     inkscape:window-y="27"
     inkscape:window-maximized="1"
     inkscape:current-layer="Layer_1" />
  <defs
     id="defs4">
    <style
       id="style2">.cls-1{fill:#f3bd48;}</style>
  </defs>
  <title
     id="title6">Artboard 1 copy 3</title>
  <path
     d="m 899.19684,600.39772 q 0,118.85 -170.83,118.85 -58.05,0 -107.91,-14 l 14.9,-67.78 q 49.23,17 93,17 48.63,0 69.91,-9.42 21.28,-9.42 21.28,-31.61 0,-23.1 -20.06,-38.91 -17.32,-14 -70.22,-36.48 -48,-20.65 -71.43,-45 -29.49,-30.71 -29.48,-75.69 0,-52.29 38.75,-81.77 38.75,-29.48 111.4,-29.49 59.58,0 100,10 l -11.25,67.48 q -41,-14.9 -88.76,-14.9 -71.73,0 -71.73,38.3 0,20.37 16.72,33.13 14.6,11 63.52,30.7 52,21 77.82,46.21 34.37,33.83 34.37,83.38 z"
     id="path8"
     inkscape:connector-curvature="0" />
  <path
     d="m 1332.9569,503.08772 q 0,93.33 -57.15,154.72 -57.15,61.39 -141.34,61.41 -80.2501,0 -134.3501,-56.39 -54.09996,-56.39 -54.10996,-143.32 0,-93.3 57.14996,-154.72 57.15,-61.42 141.3401,-61.4 80.25,0 134.35,56.24 54.1,56.24 54.11,143.46 z m -83.89,8.82 q 0,-63.52 -32.53,-103 -32.53,-39.48 -80.24,-39.52 -44.3801,0 -75.3901,39.82 -31.01,39.82 -31,100.62 0,63.21 32.68,102.89 32.68,39.68 80.0901,39.66 44.39,0 75.39,-40 31,-40 31,-100.44 z"
     id="path10"
     inkscape:connector-curvature="0" />
  <path
     class="cls-1"
     d="m 1388.2669,241.98772 56.93,95.59 c 0,0 3.21,-2.6 9,-6.78 5.79,-4.18 14.2,-10.1 24.53,-16.7 5.16,-3.34 10.74,-6.94 16.78,-10.54 6.04,-3.6 12.3,-7.54 19,-11.27 6.7,-3.73 13.49,-7.83 20.59,-11.64 7.1,-3.81 14.31,-7.7 21.57,-11.51 7.26,-3.81 14.59,-7.49 21.86,-11 7.27,-3.51 14.52,-6.87 21.47,-10.18 14,-6.52 27.26,-12.25 38.82,-16.86 11.56,-4.61 21.31,-8.24 28.23,-10.64 6.92,-2.4 11,-3.58 11,-3.58 0,0 -3.2,2.59 -9,6.8 -5.8,4.21 -14.2,10.1 -24.54,16.71 -10.34,6.61 -22.47,14.16 -35.77,21.8 -6.69,3.75 -13.47,7.84 -20.59,11.62 -7.12,3.78 -14.33,7.68 -21.57,11.5 -7.24,3.82 -14.6,7.47 -21.88,11 -7.28,3.53 -14.52,6.87 -21.47,10.18 -6.95,3.31 -13.85,6.26 -20.34,9.1 -6.49,2.84 -12.71,5.42 -18.47,7.75 -11.5,4.7 -21.32,8.25 -28.23,10.65 -6.91,2.4 -11,3.59 -11,3.59 l 115.13,193.29 -138,151 v 0 l -10.66,11.65 c -43.47,47.57 -36.9,118.64 14.7,158.75 51.6,40.11 128.69,34 172.18,-13.56 l 166.08,-181.69 22.57,-24.69 c 0,0 -4.25,-2.23 -11.52,-6.49 a 124.29,124.29 0 0 1 -12.78,-8.19 150.71,150.71 0 0 1 -15.64,-11.88 c -2.72,-2.36 -5.76,-4.64 -8.54,-7.37 l -8.47,-8.55 c -5.49,-6.18 -11.31,-12.81 -16,-20.56 a 105.78,105.78 0 0 1 -16.21,-39.13 c -0.62,-4.84 -1.58,-9.67 -1.47,-14.59 a 89.28,89.28 0 0 1 3.93,-28.87 c 2.52,-9.33 7.13,-17.75 11.72,-25.59 4.59,-7.84 10.46,-14.57 16,-20.74 a 155.4,155.4 0 0 1 17.3,-15.83 173.42,173.42 0 0 1 29.49,-18.95 110.36,110.36 0 0 1 12.2,-5.43 l -164.78,-276.72 z"
     id="path12"
     inkscape:connector-curvature="0"
     style="fill:#f3bd48" />
  <path
     class="cls-1"
     d="m 1827.8269,468.63772 0.14,-0.07 -40.77,-68.48 c 0,0 -3.72,3 -9.85,8.38 a 315,315 0 0 0 -23.65,23.43 c -4.53,5.06 -9,10.75 -13.6,16.8 a 171.14,171.14 0 0 0 -12.25,19.9 105.93,105.93 0 0 0 -8.51,22.52 c -1.87,7.81 -3.15,15.87 -2.69,24 -0.17,4 0.64,8.06 1,12.08 0.84,4 1.6,8 2.75,11.85 2.54,7.73 5.37,15.39 9.35,22.41 a 203.13,203.13 0 0 0 12.43,20 c 4.66,6 8.92,11.94 13.47,17 4.31,5.25 8.64,9.84 12.47,13.95 3.83,4.11 7.17,7.74 10.1,10.57 5.75,5.79 8.93,9.29 8.93,9.3 l 29.7,-32.47 c 34.78,-38 37.54,-90.95 10.98,-131.17 z"
     id="path14"
     inkscape:connector-curvature="0"
     style="fill:#f3bd48" />
</svg>
