<?xml version="1.0" encoding="UTF-8" standalone="no"?>
<svg
   xmlns:dc="http://purl.org/dc/elements/1.1/"
   xmlns:cc="http://creativecommons.org/ns#"
   xmlns:rdf="http://www.w3.org/1999/02/22-rdf-syntax-ns#"
   xmlns:svg="http://www.w3.org/2000/svg"
   xmlns="http://www.w3.org/2000/svg"
   xmlns:sodipodi="http://sodipodi.sourceforge.net/DTD/sodipodi-0.dtd"
   xmlns:inkscape="http://www.inkscape.org/namespaces/inkscape"
   id="Layer_1"
   data-name="Layer 1"
   viewBox="0 0 1133 1000"
   version="1.1"
   sodipodi:docname="logo_left.svg"
   width="1133"
   height="1000"
   inkscape:version="0.92.3 (2405546, 2018-03-11)">
  <metadata
     id="metadata19">
    <rdf:RDF>
      <cc:Work
         rdf:about="">
        <dc:format>image/svg+xml</dc:format>
        <dc:type
           rdf:resource="http://purl.org/dc/dcmitype/StillImage" />
        <dc:title>Artboard 1 copy 3</dc:title>
      </cc:Work>
    </rdf:RDF>
  </metadata>
  <sodipodi:namedview
     pagecolor="#ffffff"
     bordercolor="#666666"
     borderopacity="1"
     objecttolerance="10"
     gridtolerance="10"
     guidetolerance="10"
     inkscape:pageopacity="0"
     inkscape:pageshadow="2"
     inkscape:window-width="1021"
     inkscape:window-height="480"
     id="namedview17"
     showgrid="false"
     inkscape:zoom="0.0890625"
     inkscape:cx="1920"
     inkscape:cy="1080"
     inkscape:window-x="133"
     inkscape:window-y="56"
     inkscape:window-maximized="0"
     inkscape:current-layer="Layer_1" />
  <defs
     id="defs4">
    <style
       id="style2">.cls-1{fill:#f3bd48;}</style>
  </defs>
  <title
     id="title6">Artboard 1 copy 3</title>
  <path
     d="m 671.40737,595.76316 q 0,118.9 -170.83,118.9 -58.05,0 -107.91,-14 l 14.9,-67.8 q 49.23,17 93,17 48.63,0 69.91,-9.4 21.28,-9.4 21.28,-31.6 0,-23.1 -20.06,-38.9 -17.32,-14 -70.22,-36.5 -48,-20.7 -71.43,-45 -29.49,-30.7 -29.48,-75.7 0,-52.3 38.75,-81.8 38.75,-29.5 111.4,-29.5 59.58,0 100,10 l -11.25,67.5 q -41,-14.9 -88.76,-14.9 -71.73,0 -71.73,38.3 0,20.4 16.72,33.1 14.6,11 63.52,30.7 52,21 77.82,46.3 34.37,33.8 34.37,83.3 z"
     id="path8"
     inkscape:connector-curvature="0" />
  <path
     d="m 1105.1674,498.46316 q 0,93.4 -57.15,154.7 -57.15003,61.4 -141.34003,61.5 -80.25,0 -134.35,-56.4 -54.1,-56.4 -54.11,-143.4 0,-93.3 57.15,-154.7 57.15,-61.4 141.34,-61.4 80.24999,0 134.35003,56.3 54.1,56.2 54.11,143.4 z m -83.89,8.8 q 0,-63.5 -32.53003,-103 -32.53,-39.4 -80.24,-39.5 -44.38,0 -75.39,39.8 -31.01,39.9 -31,100.7 0,63.2 32.68,102.9 32.68,39.6 80.09,39.6 44.39,0 75.39,-40 31.00003,-40 31.00003,-100.4 z"
     id="path10"
     inkscape:connector-curvature="0" />
  <path
     class="cls-1"
     d="m 1160.4774,237.36316 56.93,95.6 c 0,0 3.21,-2.6 9,-6.8 5.79,-4.1 14.2,-10.1 24.53,-16.7 5.16,-3.3 10.74,-6.9 16.78,-10.5 6.04,-3.6 12.3,-7.5 19,-11.3 6.7,-3.7 13.49,-7.8 20.59,-11.6 7.1,-3.8 14.31,-7.7 21.57,-11.5 7.26,-3.8 14.59,-7.5 21.86,-11 7.27,-3.5 14.52,-6.9 21.47,-10.2 14,-6.5 27.26,-12.3 38.82,-16.9 11.56,-4.6 21.31,-8.2 28.23,-10.6 6.92,-2.4 11,-3.6 11,-3.6 0,0 -3.2,2.6 -9,6.8 -5.8,4.2 -14.2,10.1 -24.54,16.7 -10.34,6.6 -22.47,14.2 -35.77,21.8 -6.69,3.8 -13.47,7.9 -20.59,11.6 -7.12,3.8 -14.33,7.7 -21.57,11.5 -7.24,3.9 -14.6,7.5 -21.88,11 -7.28,3.6 -14.52,6.9 -21.47,10.2 -6.95,3.3 -13.85,6.3 -20.34,9.1 -6.49,2.9 -12.71,5.4 -18.47,7.8 -11.5,4.7 -21.32,8.2 -28.23,10.6 -6.91,2.4 -11,3.6 -11,3.6 l 115.13,193.3 -138,151 v 0 l -10.66,11.7 c -43.47,47.5 -36.9,118.6 14.7,158.7 51.6,40.1 128.69,34 172.18,-13.6 l 166.08,-181.6 22.57,-24.7 c 0,0 -4.25,-2.3 -11.52,-6.5 a 124.29,124.29 0 0 1 -12.78,-8.2 150.71,150.71 0 0 1 -15.64,-11.9 c -2.72,-2.4 -5.76,-4.6 -8.54,-7.4 l -8.47,-8.5 c -5.49,-6.2 -11.31,-12.8 -16,-20.6 a 105.78,105.78 0 0 1 -16.21,-39.1 c -0.62,-4.8 -1.58,-9.7 -1.47,-14.6 a 89.28,89.28 0 0 1 3.93,-28.9 c 2.52,-9.3 7.13,-17.7 11.72,-25.6 4.59,-7.8 10.46,-14.5 16,-20.7 a 155.4,155.4 0 0 1 17.3,-15.8 173.42,173.42 0 0 1 29.49,-19 110.36,110.36 0 0 1 12.2,-5.4 l -164.78,-276.7 z"
     id="path12"
     inkscape:connector-curvature="0"
     style="fill:#f3bd48" />
  <path
     class="cls-1"
     d="m 1600.0374,464.06316 0.14,-0.1 -40.77,-68.5 c 0,0 -3.72,3 -9.85,8.4 a 315,315 0 0 0 -23.65,23.4 c -4.53,5.1 -9,10.8 -13.6,16.8 a 171.14,171.14 0 0 0 -12.25,19.9 105.93,105.93 0 0 0 -8.51,22.6 c -1.87,7.8 -3.15,15.8 -2.69,24 -0.17,4 0.64,8 1,12 0.84,4 1.6,8 2.75,11.9 2.54,7.7 5.37,15.4 9.35,22.4 a 203.13,203.13 0 0 0 12.43,20 c 4.66,6 8.92,11.9 13.47,17 4.31,5.2 8.64,9.8 12.47,13.9 3.83,4.2 7.17,7.8 10.1,10.6 5.75,5.8 8.93,9.3 8.93,9.3 l 29.7,-32.5 c 34.78,-38 37.54,-90.9 10.98,-131.1 z"
     id="path14"
     inkscape:connector-curvature="0"
     style="fill:#f3bd48" />
</svg>
