<?xml version="1.0" encoding="UTF-8" standalone="no"?>
<svg
   xmlns:dc="http://purl.org/dc/elements/1.1/"
   xmlns:cc="http://creativecommons.org/ns#"
   xmlns:rdf="http://www.w3.org/1999/02/22-rdf-syntax-ns#"
   xmlns:svg="http://www.w3.org/2000/svg"
   xmlns="http://www.w3.org/2000/svg"
   xmlns:sodipodi="http://sodipodi.sourceforge.net/DTD/sodipodi-0.dtd"
   xmlns:inkscape="http://www.inkscape.org/namespaces/inkscape"
   id="Layer_1"
   data-name="Layer 1"
   viewBox="0 0 1000 1000"
   version="1.1"
   sodipodi:docname="logo_X.svg"
   width="1000"
   height="1000"
   inkscape:version="0.92.3 (2405546, 2018-03-11)">
  <metadata
     id="metadata21">
    <rdf:RDF>
      <cc:Work
         rdf:about="">
        <dc:format>image/svg+xml</dc:format>
        <dc:type
           rdf:resource="http://purl.org/dc/dcmitype/StillImage" />
        <dc:title>Artboard 1 copy</dc:title>
      </cc:Work>
    </rdf:RDF>
  </metadata>
  <sodipodi:namedview
     pagecolor="#ffffff"
     bordercolor="#666666"
     borderopacity="1"
     objecttolerance="10"
     gridtolerance="10"
     guidetolerance="10"
     inkscape:pageopacity="0"
     inkscape:pageshadow="2"
     inkscape:window-width="1366"
     inkscape:window-height="741"
     id="namedview19"
     showgrid="false"
     inkscape:zoom="0.0890625"
     inkscape:cx="1920"
     inkscape:cy="1080"
     inkscape:window-x="0"
     inkscape:window-y="27"
     inkscape:window-maximized="1"
     inkscape:current-layer="Layer_1" />
  <defs
     id="defs4">
    <style
       id="style2">.cls-1{fill:#f3bd48;}</style>
  </defs>
  <title
     id="title6">Artboard 1 copy</title>
  <path
     class="cls-1"
     d="m 141.17912,244.75965 56.93,95.59 c 0,0 3.21,-2.6 9,-6.78 5.79,-4.18 14.2,-10.1 24.53,-16.7 5.16,-3.34 10.74,-6.94 16.78,-10.54 6.04,-3.6 12.3,-7.54 19,-11.27 6.7,-3.73 13.49,-7.83 20.59,-11.64 7.1,-3.81 14.31,-7.7 21.57,-11.51 7.26,-3.81 14.59,-7.49 21.86,-11 7.27,-3.51 14.52,-6.87 21.47,-10.18 14,-6.52 27.26,-12.25 38.82,-16.86 11.56,-4.61 21.31,-8.24 28.23,-10.64 6.92,-2.4 11,-3.58 11,-3.58 0,0 -3.2,2.59 -9,6.8 -5.8,4.21 -14.2,10.1 -24.54,16.71 -10.34,6.61 -22.47,14.16 -35.77,21.8 -6.69,3.75 -13.47,7.84 -20.59,11.62 -7.12,3.78 -14.33,7.68 -21.57,11.5 -7.24,3.82 -14.6,7.47 -21.88,11 -7.28,3.53 -14.52,6.87 -21.47,10.18 -6.95,3.31 -13.85,6.26 -20.34,9.1 -6.49,2.84 -12.71,5.42 -18.47,7.75 -11.5,4.7 -21.32,8.25 -28.23,10.65 -6.91,2.4 -11,3.59 -11,3.59 l 115.13,193.29 -138,151 v 0 l -10.66,11.65 c -43.47,47.57 -36.9,118.64 14.7,158.75 51.6,40.11 128.69,34 172.18,-13.56 l 166.08,-181.69 22.57,-24.69 c 0,0 -4.25,-2.23 -11.52,-6.49 a 124.29,124.29 0 0 1 -12.78,-8.19 150.71,150.71 0 0 1 -15.64,-11.88 c -2.72,-2.36 -5.76,-4.64 -8.54,-7.37 l -8.47,-8.55 c -5.49,-6.18 -11.31,-12.81 -16,-20.56 a 105.78,105.78 0 0 1 -16.21,-39.13 c -0.62,-4.84 -1.58,-9.67 -1.47,-14.59 a 89.28,89.28 0 0 1 3.93,-28.87 c 2.52,-9.33 7.13,-17.75 11.72,-25.59 4.59,-7.84 10.46,-14.57 16,-20.74 a 155.4,155.4 0 0 1 17.3,-15.83 173.42,173.42 0 0 1 29.49,-18.95 110.36,110.36 0 0 1 12.2,-5.43 l -164.78,-276.72 z"
     id="path8"
     inkscape:connector-curvature="0"
     style="fill:#f3bd48" />
  <path
     class="cls-1"
     d="m 580.73912,471.40965 0.14,-0.07 -40.77,-68.48 c 0,0 -3.72,3 -9.85,8.38 a 315,315 0 0 0 -23.65,23.43 c -4.53,5.06 -9,10.75 -13.6,16.8 a 171.14,171.14 0 0 0 -12.25,19.9 105.93,105.93 0 0 0 -8.51,22.52 c -1.87,7.81 -3.15,15.87 -2.69,24 -0.17,4 0.64,8.06 1,12.08 0.84,4 1.6,8 2.75,11.85 2.54,7.73 5.37,15.39 9.35,22.41 a 203.13,203.13 0 0 0 12.43,20 c 4.66,6 8.92,11.94 13.47,17 4.31,5.25 8.64,9.84 12.47,13.95 3.83,4.11 7.17,7.74 10.1,10.57 5.75,5.79 8.93,9.29 8.93,9.3 l 29.7,-32.47 c 34.78,-38 37.54,-90.95 10.98,-131.17 z"
     id="path10"
     inkscape:connector-curvature="0"
     style="fill:#f3bd48" />
  <path
     d="m 662.39912,144.56965 209.16,105.9 -41.36,69.39 c -7.19,-5.12 -14.56,-10.09 -21.89,-14.79 l -0.74,-0.47 c -4.93,-3.18 -10.5,-6.77 -16.39,-10.26 l -3.79,-2.31 c -5,-3 -10.12,-6.15 -15.6,-9.2 -2.32,-1.31 -4.65,-2.65 -7,-4 -4.45,-2.56 -9.05,-5.2 -13.68,-7.68 -6.07,-3.35 -12.35,-6.67 -18.43,-9.87 l -3.53,-1.86 -3.67,-1.87 c -6,-3.08 -12.26,-6.26 -18.26,-9.17 -4.8,-2.42 -9.58,-4.64 -14.21,-6.78 -2.54,-1.18 -5,-2.35 -7.65,-3.59 -13.61,-6.33 -27.28,-12.26 -39.42,-17.12 -7.69,-3.15 -15.61,-6.17 -23.62,-9 l 40.09,-67.32 m -5.32,-18.36 -55.65,93.43 c 0,0 4.07,1.19 11,3.58 6.93,2.39 16.7,5.94 28.21,10.64 11.51,4.7 24.82,10.34 38.82,16.85 6.94,3.32 14.25,6.55 21.46,10.19 7.21,3.64 14.56,7.28 21.87,11 7.31,3.72 14.51,7.62 21.56,11.51 7.05,3.89 13.91,7.87 20.59,11.63 6.68,3.76 13,7.65 19,11.29 6,3.64 11.62,7.2 16.78,10.52 10.32,6.61 18.71,12.5 24.53,16.7 5.82,4.2 9,6.79 9,6.79 l 56.94,-95.59 -234.12,-118.54 z"
     id="path12"
     inkscape:connector-curvature="0" />
  <path
     d="m 605.51912,240.08965 c 7.36,5.25 14.56,10.12 21.82,14.75 10.71,7 23.32,14.69 36.58,22.3 q 3.63,2 7.3,4.17 c 4.36,2.51 8.86,5.1 13.4,7.52 6.17,3.4 12.54,6.75 18.71,10 l 3.26,1.71 3.54,1.8 c 6.07,3.1 12.34,6.3 18.42,9.25 4.79,2.39 9.55,4.61 14.16,6.75 2.55,1.18 5.08,2.35 7.51,3.52 5.61,2.69 11.07,5.07 16.35,7.37 l 4.35,1.9 c 6.74,3 13.22,5.63 18.88,7.92 7.75,3.16 15.51,6.14 23.62,9 l -106.26,178.41 -5.31,8.91 7,7.66 122.33,133.83 c -2.77,0.15 -5.6,0.41 -8.48,0.76 h -0.33 l -0.33,0.05 -2.59,0.43 c -2.65,0.44 -5.38,0.9 -8.17,1.46 l -0.36,0.07 -0.35,0.09 -0.76,0.2 c -3.31,0.85 -7.08,1.82 -10.9,3.06 l -0.25,0.09 -0.25,0.09 c -1.12,0.41 -2.26,0.81 -3.41,1.21 -2.54,0.89 -5.43,1.9 -8.48,3.22 -3.82,1.69 -7.91,3.56 -11.95,5.72 l -0.2,0.11 -0.21,0.12 -4.21,2.44 -6.66,3.86 -0.39,0.22 -0.36,0.25 c -4.25,2.84 -7.7,5.23 -10.87,7.49 l -0.15,0.12 -0.15,0.12 c -3.33,2.52 -6.45,5.15 -9.47,7.69 l -1,0.85 -2.52,2.14 -0.6,0.51 -0.25,0.22 -0.23,0.22 -1,0.93 -1.13,1.1 -4.32,4.23 a 127.81,127.81 0 0 0 -9.57,10.22 c -0.66,0.79 -1.33,1.57 -2,2.35 a 98.17,98.17 0 0 0 -6.67,8.36 184.93,184.93 0 0 0 -13.87,21.74 l -0.22,0.37 -0.19,0.38 c -0.56,1.16 -1.14,2.29 -1.72,3.42 -1.2,2.36 -2.43,4.79 -3.58,7.36 l -0.13,0.31 -0.13,0.31 -4,10.19 -0.15,0.41 -0.14,0.42 -2.22,7 -0.89,2.82 -0.17,0.55 -0.13,0.57 -1.2,5.31 -0.92,4 -0.07,0.31 v 0.31 c -0.6,3.31 -1,6 -1.4,8.49 l -133.14,-145.64 17.51,-19.16 29.69,-32.47 c 38.55,-42.16 48,-99.93 24.73,-150.79 l -0.12,-0.28 -0.15,-0.27 -4.94,-9.65 -0.12,-0.23 -0.12,-0.23 c -0.67,-1.18 -1.35,-2.35 -2,-3.34 l -2.3,-3.93 -40.76,-68.28 -12,-20.18 -13.79,-23.16 61.57,-103.38 m -4.09,-20.45 -73.8,123.78 18.06,30.32 v 0 l 12,20.18 40.77,68.45 2.25,3.84 c 0.62,1 1.22,2.06 1.81,3.11 l 4.94,9.65 c 20.6,45 12.56,97.38 -22.33,135.53 l -29.69,32.48 -22.57,24.69 -3.57,3.9 151.59,165.83 a 117,117 0 0 0 15.15,13.77 59.05,59.05 0 0 1 -1.54,-10.79 102.23,102.23 0 0 1 0,-12.72 c 0.2,-2.46 0.44,-5.07 0.66,-7.84 0.39,-2.73 0.87,-5.62 1.41,-8.62 0.54,-3 1.39,-6.11 2.12,-9.34 q 1.5,-4.76 3.1,-9.8 1.93,-5 4,-10.19 c 1.52,-3.41 3.35,-6.8 5.08,-10.3 a 170,170 0 0 1 13,-20.45 126.21,126.21 0 0 1 8.07,-9.93 112.62,112.62 0 0 1 8.6,-9.17 l 4.37,-4.28 1.09,-1.07 0.82,-0.77 0.61,-0.52 2.46,-2.08 c 3.27,-2.75 6.51,-5.52 9.9,-8.1 3.39,-2.58 7,-4.89 10.48,-7.23 3.66,-2.13 7.29,-4.22 10.86,-6.29 3.57,-2.07 7.37,-3.65 11,-5.27 3.63,-1.62 7.49,-2.77 11.07,-4.09 3.58,-1.32 7.31,-2.11 10.78,-3 3.57,-0.72 7,-1.25 10.35,-1.81 a 110,110 0 0 1 13.43,-0.87 c 1.67,0 3.29,0 4.85,0.14 a 79.41,79.41 0 0 1 13.82,1.79 57,57 0 0 1 8.49,2.44 25.17,25.17 0 0 1 2.84,1.21 l -10.66,-11.65 v 0 l -138,-151 115.12,-193.3 c 0,0 -4.06,-1.19 -11,-3.59 -6.94,-2.4 -16.72,-5.95 -28.22,-10.65 -5.77,-2.33 -12,-4.85 -18.47,-7.74 -6.47,-2.89 -13.39,-5.76 -20.34,-9.11 -6.95,-3.35 -14.26,-6.56 -21.48,-10.17 -7.22,-3.61 -14.56,-7.29 -21.87,-11 -7.31,-3.71 -14.52,-7.61 -21.57,-11.49 -7.05,-3.88 -13.9,-7.88 -20.6,-11.64 -13.3,-7.63 -25.5,-15.1 -35.78,-21.81 -10.28,-6.71 -18.71,-12.5 -24.53,-16.7 -5.82,-4.2 -9,-6.79 -9,-6.8 z"
     id="path14"
     inkscape:connector-curvature="0" />
  <path
     d="m 861.26912,710.02965 c 15.61,19.14 23,42.51 21,66.44 -2.25,26.36 -15.64,50.33 -37.72,67.49 -19.52,15.17 -44.36,23.52 -69.94,23.52 a 115.76,115.76 0 0 1 -62.77,-18.24 c 0.08,-0.35 0.17,-0.71 0.26,-1.07 0.7,-2.65 1.73,-5.92 2.9,-9.69 l 0.39,-1.21 c 1.47,-4.32 3.38,-9.17 5.24,-13.8 2.17,-5 4.86,-10.45 7.44,-15.61 l 1.5,-2.64 3.08,-5.36 c 1.35,-2 2.57,-4 3.76,-6 0.53,-0.88 1.06,-1.75 1.61,-2.63 l 2.81,-3.95 3.21,-4.53 c 1,-1.35 2.09,-2.67 3.16,-4 1.25,-1.52 2.5,-3.05 3.82,-4.81 a 46.1,46.1 0 0 1 3.33,-3.85 c 1.19,-1.28 2.39,-2.58 3.55,-4 a 94.63,94.63 0 0 1 7,-7.31 l 0.13,-0.12 0.12,-0.12 4.31,-4.32 1,-1 0.14,-0.12 2,-1.77 c 1.49,-1.25 2.93,-2.55 4.36,-3.85 1.43,-1.3 2.73,-2.47 4,-3.53 2.61,-2 5.32,-4.12 8.72,-6.88 l 2.63,-1.82 5.8,-4 c 5.48,-3.35 11.27,-6.84 16.7,-9.45 a 172.3,172.3 0 0 1 16.26,-6.55 141.76,141.76 0 0 1 14.19,-3.54 111.07,111.07 0 0 1 11.62,-1.46 c 1.45,-0.09 2.87,-0.15 4.24,-0.17 m 1.2,-14 c -1.74,0 -3.86,0 -6.32,0.2 a 119.36,119.36 0 0 0 -13,1.62 155,155 0 0 0 -16.11,4 184,184 0 0 0 -17.92,7.19 c -6.12,3 -12.24,6.6 -18.5,10.44 l -9.19,6.36 c -2.92,2.38 -5.91,4.76 -9,7.08 -3.09,2.32 -5.74,5.15 -8.72,7.66 l -2.21,1.92 -0.54,0.47 0.1,-0.1 -0.39,0.4 -1.08,1.08 -4.31,4.33 a 101.73,101.73 0 0 0 -8.17,8.51 c -2.41,2.9 -5.16,5.41 -7.41,8.49 -2.25,3.08 -4.78,5.86 -7,8.83 -2.22,2.97 -4.27,6 -6.35,8.95 -1.9,3 -3.67,6.08 -5.62,9 l -5,8.82 c -2.94,5.88 -5.71,11.5 -8,16.84 -2.15,5.35 -4.09,10.32 -5.63,14.83 -1.54,4.51 -2.68,8.48 -3.55,11.81 -0.87,3.33 -1.52,6 -1.87,7.8 -0.35,1.8 -0.5,2.6 -0.52,2.72 22.46,17.32 50.38,26.2 78.45,26.2 a 127.76,127.76 0 0 0 78.51,-26.46 c 51.6,-40.1 58.18,-111.18 14.7,-158.75 0,0 -1.92,-0.2 -5.35,-0.2 z"
     id="path16"
     inkscape:connector-curvature="0" />
</svg>
