<?xml version="1.0" encoding="UTF-8" standalone="no"?>
<svg
   xmlns:dc="http://purl.org/dc/elements/1.1/"
   xmlns:cc="http://creativecommons.org/ns#"
   xmlns:rdf="http://www.w3.org/1999/02/22-rdf-syntax-ns#"
   xmlns:svg="http://www.w3.org/2000/svg"
   xmlns="http://www.w3.org/2000/svg"
   xmlns:sodipodi="http://sodipodi.sourceforge.net/DTD/sodipodi-0.dtd"
   xmlns:inkscape="http://www.inkscape.org/namespaces/inkscape"
   id="Layer_1"
   data-name="Layer 1"
   viewBox="0 0 1700 1000"
   version="1.1"
   sodipodi:docname="logo_right.svg"
   width="1700"
   height="1000"
   inkscape:version="0.92.3 (2405546, 2018-03-11)">
  <metadata
     id="metadata49">
    <rdf:RDF>
      <cc:Work
         rdf:about="">
        <dc:format>image/svg+xml</dc:format>
        <dc:type
           rdf:resource="http://purl.org/dc/dcmitype/StillImage" />
        <dc:title>Artboard 1 copy 2</dc:title>
      </cc:Work>
    </rdf:RDF>
  </metadata>
  <defs
     id="defs47" />
  <sodipodi:namedview
     pagecolor="#ffffff"
     bordercolor="#666666"
     borderopacity="1"
     objecttolerance="10"
     gridtolerance="10"
     guidetolerance="10"
     inkscape:pageopacity="0"
     inkscape:pageshadow="2"
     inkscape:window-width="1366"
     inkscape:window-height="741"
     id="namedview45"
     showgrid="false"
     inkscape:zoom="0.0890625"
     inkscape:cx="1920"
     inkscape:cy="1080"
     inkscape:window-x="0"
     inkscape:window-y="27"
     inkscape:window-maximized="1"
     inkscape:current-layer="Layer_1" />
  <title
     id="title2">Artboard 1 copy 2</title>
  <path
     d="m 317.12842,408.43702 q 0,69.3 -52.58,103.65 -52.58,34.35 -141.35,34.35 -11.25,0 -19.45,-0.61 0,66.27 4.86,160.19 h -58.36 q 4.56,-86.32 4.56,-207.91 0,-104.56 -4.56,-187.85 h 43.47 q 7,0 40,-0.91 33,-0.91 56.08,-0.92 58.36,0 92.86,26.6 34.5,26.6 34.47,73.41 z m -50.76,17.63 q 0,-78.12 -106.69,-78.12 a 428,428 0 0 0 -58.67,4.55 q 2.13,49.56 2.13,154.42 10.65,0.62 26.15,0.6 137.08,0 137.08,-81.45 z"
     id="path4"
     inkscape:connector-curvature="0" />
  <path
     d="m 635.36842,661.32702 -1.83,44.69 h -239.17 q 3.65,-75.07 3.65,-207.91 0,-114.28 -3.65,-187.85 h 56.54 q -3.65,61.41 -3.65,187.85 0,104 -3.34,166.57 91.16,0 191.45,-3.35 z"
     id="path6"
     inkscape:connector-curvature="0" />
  <path
     d="m 1022.3684,706.01702 h -64.14 q 0,-20.37 -38.29,-128 H 744.50842 q -37.69,106.1 -37.7,128 h -61.44 q 0,-11.25 78.43,-194.39 78.43,-183.14 78.42,-201.37 h 70.51998 q 0,17.92 74.78,198.48 74.78,180.56 74.85,197.28 z m -116.42,-167.79 q -71.47998,-178.42 -71.46998,-189.67 h -3.34 q 0,9.42 -73.87,189.67 z"
     id="path8"
     inkscape:connector-curvature="0" />
  <path
     d="m 1346.6584,310.25702 q 0,11.25 -37.39,65.65 -52.89,76.91 -69,104.57 -37.4,63.52 -37.39,96.65 0,62.64 4.26,128.89 h -58.37 q 4,-62.93 4,-129.49 0,-36.48 -35,-101.22 -19.77,-36.18 -65.35,-104.57 -35,-52.87 -35,-60.48 h 62.31 q 0,7.9 52.43,96.81 52.43,88.91 52.43,117.48 h 3 q 0,-28.87 50,-115.5 50,-86.63 50,-98.79 z"
     id="path10"
     inkscape:connector-curvature="0" />
  <path
     d="m -233.88158,139.51702 209.16,105.9 -41.359999,69.39 c -7.19,-5.12 -14.56,-10.09 -21.89,-14.79 l -0.74,-0.47 c -4.93,-3.18 -10.5,-6.77 -16.390001,-10.26 l -3.79,-2.31 c -5,-3 -10.12,-6.15 -15.6,-9.2 -2.32,-1.31 -4.65,-2.65 -7,-4 -4.45,-2.56 -9.05,-5.2 -13.68,-7.68 -6.07,-3.35 -12.35,-6.67 -18.43,-9.87 l -3.53,-1.86 -3.67,-1.87 c -6,-3.08 -12.26,-6.26 -18.26,-9.17 -4.8,-2.42 -9.58,-4.64 -14.21,-6.78 -2.54,-1.18 -5,-2.35 -7.65,-3.59 -13.61,-6.33 -27.28,-12.26 -39.42,-17.12 -7.69,-3.15 -15.61,-6.17 -23.62,-9 l 40.09,-67.32 m -5.32,-18.36 -55.65,93.43 c 0,0 4.07,1.19 11,3.58 6.93,2.39 16.7,5.94 28.21,10.64 11.51,4.7 24.82,10.34 38.82,16.85 6.94,3.32 14.25,6.55 21.46,10.19 7.21,3.64 14.56,7.28 21.87,11 7.31,3.72 14.51,7.62 21.56,11.51 7.05,3.89 13.91,7.87 20.59,11.63 6.68,3.76 13,7.65 19,11.29 6,3.64 11.62,7.2 16.780001,10.52 10.32,6.61 18.71,12.5 24.53,16.7 5.82,4.2 9,6.79 9,6.79 l 56.939999,-95.59 -234.12,-118.54 z"
     id="path12"
     inkscape:connector-curvature="0" />
  <path
     d="m -290.76158,235.03702 c 7.36,5.25 14.56,10.12 21.82,14.75 10.71,7 23.32,14.69 36.58,22.3 q 3.63,2 7.3,4.17 c 4.36,2.51 8.86,5.1 13.4,7.52 6.17,3.4 12.54,6.75 18.71,10 l 3.26,1.71 3.54,1.8 c 6.07,3.1 12.34,6.3 18.42,9.25 4.79,2.39 9.55,4.61 14.16,6.75 2.55,1.18 5.08,2.35 7.51,3.52 5.61,2.69 11.07,5.07 16.35,7.37 l 4.35,1.9 c 6.74,3 13.22,5.63 18.88,7.92 7.750001,3.16 15.510001,6.14 23.620001,9 l -106.260001,178.41 -5.31,8.91 7,7.66 122.330001,133.83 c -2.77,0.15 -5.6,0.41 -8.48,0.76 h -0.33 l -0.33,0.05 -2.59,0.43 c -2.65,0.44 -5.38,0.9 -8.17,1.46 l -0.36,0.07 -0.35,0.09 -0.76,0.2 c -3.31,0.85 -7.08,1.82 -10.9,3.06 l -0.25,0.09 -0.25,0.09 c -1.12,0.41 -2.260001,0.81 -3.410001,1.21 -2.54,0.89 -5.43,1.9 -8.48,3.22 -3.82,1.69 -7.91,3.56 -11.95,5.72 l -0.2,0.11 -0.21,0.12 -4.21,2.44 -6.66,3.86 -0.39,0.22 -0.36,0.25 c -4.25,2.84 -7.7,5.23 -10.87,7.49 l -0.15,0.12 -0.15,0.12 c -3.33,2.52 -6.45,5.15 -9.47,7.69 l -1,0.85 -2.52,2.14 -0.6,0.51 -0.25,0.22 -0.23,0.22 -1,0.93 -1.13,1.1 -4.32,4.23 a 127.81,127.81 0 0 0 -9.57,10.22 c -0.66,0.79 -1.33,1.57 -2,2.35 a 98.17,98.17 0 0 0 -6.67,8.36 184.93,184.93 0 0 0 -13.87,21.74 l -0.22,0.37 -0.19,0.38 c -0.56,1.16 -1.14,2.29 -1.72,3.42 -1.2,2.36 -2.43,4.79 -3.58,7.36 l -0.13,0.31 -0.13,0.31 -4,10.19 -0.15,0.41 -0.14,0.42 -2.22,7 -0.89,2.82 -0.17,0.55 -0.13,0.57 -1.2,5.31 -0.92,4 -0.07,0.31 v 0.31 c -0.6,3.31 -1,6 -1.4,8.49 l -133.14,-145.64 17.51,-19.16 29.69,-32.47 c 38.55,-42.16 48,-99.93 24.73,-150.79 l -0.12,-0.28 -0.15,-0.27 -4.94,-9.65 -0.12,-0.23 -0.12,-0.23 c -0.67,-1.18 -1.35,-2.35 -2,-3.34 l -2.3,-3.93 -40.76,-68.28 -12,-20.18 -13.79,-23.16 61.57,-103.38 m -4.09,-20.45 -73.8,123.78 18.06,30.32 v 0 l 12,20.18 40.77,68.45 2.25,3.84 c 0.62,1 1.22,2.06 1.81,3.11 l 4.94,9.65 c 20.6,45 12.56,97.38 -22.33,135.53 l -29.69,32.48 -22.57,24.69 -3.57,3.9 151.59,165.83 a 117,117 0 0 0 15.15,13.77 59.05,59.05 0 0 1 -1.54,-10.79 102.23,102.23 0 0 1 0,-12.72 c 0.2,-2.46 0.44,-5.07 0.66,-7.84 0.39,-2.73 0.87,-5.62 1.41,-8.62 0.54,-3 1.39,-6.11 2.12,-9.34 q 1.5,-4.76 3.1,-9.8 1.93,-5 4,-10.19 c 1.52,-3.41 3.35,-6.8 5.08,-10.3 a 170,170 0 0 1 13,-20.45 126.21,126.21 0 0 1 8.07,-9.93 112.62,112.62 0 0 1 8.6,-9.17 l 4.37,-4.28 1.09,-1.07 0.82,-0.77 0.61,-0.52 2.46,-2.08 c 3.27,-2.75 6.51,-5.52 9.9,-8.1 3.39,-2.58 7,-4.89 10.48,-7.23 3.66,-2.13 7.29,-4.22 10.86,-6.29 3.57,-2.07 7.37,-3.65 11,-5.27 3.63,-1.62 7.490001,-2.77 11.070001,-4.09 3.58,-1.32 7.31,-2.11 10.78,-3 3.57,-0.72 7,-1.25 10.35,-1.81 a 110,110 0 0 1 13.43,-0.87 c 1.67,0 3.29,0 4.85,0.14 a 79.41,79.41 0 0 1 13.819999,1.79 57,57 0 0 1 8.49,2.44 25.17,25.17 0 0 1 2.84,1.21 l -10.66,-11.65 v 0 l -138,-151 115.120001,-193.3 c 0,0 -4.06,-1.19 -11,-3.59 -6.94,-2.4 -16.72,-5.95 -28.220001,-10.65 -5.77,-2.33 -12,-4.85 -18.47,-7.74 -6.47,-2.89 -13.39,-5.76 -20.34,-9.11 -6.95,-3.35 -14.26,-6.56 -21.48,-10.17 -7.22,-3.61 -14.56,-7.29 -21.87,-11 -7.31,-3.71 -14.52,-7.61 -21.57,-11.49 -7.05,-3.88 -13.9,-7.88 -20.6,-11.64 -13.3,-7.63 -25.5,-15.1 -35.78,-21.81 -10.28,-6.71 -18.71,-12.5 -24.53,-16.7 -5.82,-4.2 -9,-6.79 -9,-6.8 z"
     id="path14"
     inkscape:connector-curvature="0" />
  <path
     d="m -35.01158,704.97702 c 15.61,19.14 23,42.51 21,66.44 -2.25,26.36 -15.64,50.33 -37.719999,67.49 -19.52,15.17 -44.36,23.52 -69.940001,23.52 a 115.76,115.76 0 0 1 -62.77,-18.24 c 0.08,-0.35 0.17,-0.71 0.26,-1.07 0.7,-2.65 1.73,-5.92 2.9,-9.69 l 0.39,-1.21 c 1.47,-4.32 3.38,-9.17 5.24,-13.8 2.17,-5 4.86,-10.45 7.44,-15.61 l 1.5,-2.64 3.08,-5.36 c 1.35,-2 2.57,-4 3.76,-6 0.53,-0.88 1.06,-1.75 1.61,-2.63 l 2.81,-3.95 3.21,-4.53 c 1,-1.35 2.09,-2.67 3.16,-4 1.25,-1.52 2.5,-3.05 3.82,-4.81 a 46.1,46.1 0 0 1 3.33,-3.85 c 1.19,-1.28 2.39,-2.58 3.55,-4 a 94.63,94.63 0 0 1 7,-7.31 l 0.13,-0.12 0.12,-0.12 4.31,-4.32 1,-1 0.14,-0.12 2,-1.77 c 1.49,-1.25 2.93,-2.55 4.36,-3.85 1.43,-1.3 2.73,-2.47 4,-3.53 2.61,-2 5.32,-4.12 8.72,-6.88 l 2.63,-1.82 5.800001,-4 c 5.48,-3.35 11.27,-6.84 16.7,-9.45 a 172.3,172.3 0 0 1 16.26,-6.55 141.76,141.76 0 0 1 14.19,-3.54 111.07,111.07 0 0 1 11.619999,-1.46 c 1.45,-0.09 2.87,-0.15 4.24,-0.17 m 1.2,-14 c -1.74,0 -3.86,0 -6.32,0.2 a 119.36,119.36 0 0 0 -12.999999,1.62 155,155 0 0 0 -16.11,4 184,184 0 0 0 -17.92,7.19 c -6.12,3 -12.24,6.6 -18.500001,10.44 l -9.19,6.36 c -2.92,2.38 -5.91,4.76 -9,7.08 -3.09,2.32 -5.74,5.15 -8.72,7.66 l -2.21,1.92 -0.54,0.47 0.1,-0.1 -0.39,0.4 -1.08,1.08 -4.31,4.33 a 101.73,101.73 0 0 0 -8.17,8.51 c -2.41,2.9 -5.16,5.41 -7.41,8.49 -2.25,3.08 -4.78,5.86 -7,8.83 -2.22,2.97 -4.27,6 -6.35,8.95 -1.9,3 -3.67,6.08 -5.62,9 l -5,8.82 c -2.94,5.88 -5.71,11.5 -8,16.84 -2.15,5.35 -4.09,10.32 -5.63,14.83 -1.54,4.51 -2.68,8.48 -3.55,11.81 -0.87,3.33 -1.52,6 -1.87,7.8 -0.35,1.8 -0.5,2.6 -0.52,2.72 22.46,17.32 50.38,26.2 78.45,26.2 a 127.76,127.76 0 0 0 78.51,-26.46 c 51.6,-40.1 58.18,-111.18 14.7,-158.75 0,0 -1.92,-0.2 -5.35,-0.2 z"
     id="path16"
     inkscape:connector-curvature="0" />
  <path
     d="m 142.53842,804.25702 v 38.12 h -15 v -33.79 c 0,-8.67 -5.14,-13.92 -13.36,-13.92 -9.58,0.34 -15.4,7.64 -15.4,17.58 v 30.13 h -14.95 v -33.79 c 0,-8.67 -5,-13.92 -13.25,-13.92 -9.7,0.34 -15.52,7.64 -15.52,17.58 v 30.13 h -14.79 v -61.06 h 14.84 v 11.3 c 4.22,-8.11 11.75,-11.76 21.46,-11.88 10.73,0 18.14,5.37 21,14.61 4,-9.92 12,-14.49 22.71,-14.61 13.82,0 22.26,9.07 22.26,23.52 z"
     id="path18"
     inkscape:connector-curvature="0" />
  <path
     d="m 217.94842,842.37702 v -7.42 c -4.23,5.36 -11.08,8.1 -19.75,8.1 -13.13,0 -21.34,-8.1 -21.34,-18.94 0,-11.3 8.32,-18.26 23.16,-18.38 h 17.81 v -1.6 c 0,-7.07 -4.68,-11.3 -13.81,-11.3 -5.71,0 -11.87,1.94 -18.15,5.71 l -5.37,-10.27 c 8.8,-4.91 15.64,-7.54 26.83,-7.54 16,0 25,8.11 25.11,21.69 l 0.11,40 z m -0.12,-21.23 v -5.48 h -15.41 c -7.87,0 -11.53,2.17 -11.53,7.53 0,5.14 4.11,8.45 10.85,8.45 8.55,0 15.29,-4.56 16.09,-10.5 z"
     id="path20"
     inkscape:connector-curvature="0" />
  <path
     d="m 296.78842,815.66702 -9.36,9.82 v 16.89 h -14.84 v -84.69 h 14.84 v 49.12 l 25.11,-25.33 h 17.12 l -22.6,23.51 24,37.44 h -17.69 z"
     id="path22"
     inkscape:connector-curvature="0" />
  <path
     d="m 415.57842,817.03702 h -45.08 c 1.94,8.67 8.56,13.92 17.46,13.92 a 22.68,22.68 0 0 0 16.44,-6.84 l 8,8.33 c -6.05,6.62 -15,10.5 -25.68,10.5 -19,0 -31.39,-12.55 -31.39,-30.93 0,-18.6 12.78,-31.16 31.05,-31.16 21.44,0 30.69,14.04 29.2,36.18 z m -13.46,-9.93 c -0.35,-9 -6.39,-14.72 -15.64,-14.72 -8.79,0 -15,5.7 -16.32,14.72 z"
     id="path24"
     inkscape:connector-curvature="0" />
  <path
     d="m 513.69842,865.19702 a 22.6,22.6 0 0 1 -15.18,-5.47 l 6.39,-11.3 c 2.86,2.16 5.14,3.08 7.88,3.08 3.88,0 7,-1.94 8.9,-6.16 l 1.82,-4 -25.22,-60 h 15.41 l 17.35,44.39 15.86,-44.39 h 14.95 l -27.39,68.71 c -3.88,10.13 -11.1,15.14 -20.77,15.14 z"
     id="path26"
     inkscape:connector-curvature="0" />
  <path
     d="m 649.83842,811.80702 c 0,18.61 -13,31.16 -32.07,31.16 -19.29,0 -32.3,-12.55 -32.3,-31.16 0,-18.61 13,-30.93 32.3,-30.93 19.06,-0.02 32.07,12.42 32.07,30.93 z m -49.42,0.23 c 0,11 7.07,18.49 17.35,18.49 10,0 17.12,-7.53 17.12,-18.49 0,-10.96 -7.08,-18.5 -17.12,-18.5 -10.28,-0.02 -17.35,7.52 -17.35,18.48 z"
     id="path28"
     inkscape:connector-curvature="0" />
  <path
     d="m 741.92842,781.31702 v 61.06 h -14.95 v -11.3 c -4.23,8.1 -11.53,11.87 -21.23,11.87 -13.7,0 -22.15,-9 -22.15,-23.4 v -38.23 h 14.95 v 33.89 c 0,8.57 4.91,13.7 13.13,13.7 9.59,-0.11 15.3,-7.64 15.3,-17.47 v -30.12 z"
     id="path30"
     inkscape:connector-curvature="0" />
  <path
     d="m 818.82842,780.73702 v 14.38 c -12.9,-0.8 -20.78,6.74 -20.78,17.81 v 29.45 h -14.83 v -61.06 h 14.83 v 11.75 c 4.12,-7.99 11.32,-12.21 20.78,-12.33 z"
     id="path32"
     inkscape:connector-curvature="0" />
  <path
     d="m 1011.3684,804.25702 v 38.12 h -15 v -33.79 c 0,-8.67 -5.14,-13.92 -13.36,-13.92 -9.58,0.34 -15.4,7.64 -15.4,17.58 v 30.13 h -15 v -33.79 c 0,-8.67 -5,-13.92 -13.24,-13.92 -9.7,0.34 -15.52,7.64 -15.52,17.58 v 30.13 h -14.78 v -61.06 h 14.84 v 11.3 c 4.22,-8.11 11.76,-11.76 21.46,-11.88 10.73,0 18.15,5.37 21,14.61 4,-9.92 12,-14.49 22.71,-14.61 13.81,0 22.29,9.07 22.29,23.52 z"
     id="path34"
     inkscape:connector-curvature="0" />
  <path
     d="m 1086.7484,842.37702 v -7.42 c -4.22,5.36 -11.07,8.1 -19.75,8.1 -13.12,0 -21.34,-8.1 -21.34,-18.94 0,-11.3 8.33,-18.26 23.17,-18.38 h 17.8 v -1.6 c 0,-7.07 -4.67,-11.3 -13.81,-11.3 -5.7,0 -11.87,1.94 -18.14,5.71 l -5.37,-10.27 c 8.79,-4.91 15.64,-7.54 26.82,-7.54 16,0 25,8.11 25.11,21.69 l 0.12,40 z m -0.12,-21.23 v -5.48 h -15.4 c -7.88,0 -11.53,2.17 -11.53,7.53 0,5.14 4.11,8.45 10.84,8.45 8.56,0 15.3,-4.56 16.09,-10.5 z"
     id="path36"
     inkscape:connector-curvature="0" />
  <path
     d="m 1176.5484,838.60702 a 29.44,29.44 0 0 1 -15.3,4.45 c -9.92,0 -17.91,-5.71 -17.91,-18.26 v -30.13 h -8.56 l -0.12,-10.84 h 8.71 v -16.78 h 14.72 v 16.76 h 17.46 v 10.84 h -17.46 v 27.51 c 0,5.82 2.4,7.76 6.39,7.76 2.51,0 5.37,-0.92 8.68,-2.51 z"
     id="path38"
     inkscape:connector-curvature="0" />
  <path
     d="m 1236.4484,793.87702 c -9.81,0 -16.66,7.3 -16.66,18 0,11 6.85,18.26 16.66,18.26 7.08,0 12.79,-2.39 16.44,-7.18 l 9.24,7.64 c -5.36,7.77 -14.49,12.33 -26.48,12.33 -18.26,0 -30.81,-12.55 -30.81,-30.93 0,-18.6 12.67,-31.16 31,-31.16 11.19,0 20.09,4.11 25.57,11.19 l -9,8.55 a 20.94,20.94 0 0 0 -15.96,-6.7 z"
     id="path40"
     inkscape:connector-curvature="0" />
  <path
     d="m 1357.6484,804.25702 v 38.12 h -15 v -33.79 c 0,-8.55 -5.13,-13.81 -13.58,-13.81 -10,0.12 -16.1,7.53 -16.1,17.58 v 30 h -14.83 v -84.69 h 14.83 v 35.27 c 4.34,-8.33 12,-12.1 22,-12.22 14.12,0.02 22.68,9.09 22.68,23.54 z"
     id="path42"
     inkscape:connector-curvature="0" />
</svg>
